<?xml version="1.0" encoding="utf-8"?>
<!-- Generator: Adobe Illustrator 24.3.0, SVG Export Plug-In . SVG Version: 6.00 Build 0)  -->
<svg version="1.1" id="Layer_1" xmlns="http://www.w3.org/2000/svg" xmlns:xlink="http://www.w3.org/1999/xlink" x="0px" y="0px"
	 viewBox="0 0 300 300" enable-background="new 0 0 300 300" xml:space="preserve">
<g>
	<g>
		<g>
			<rect x="353.738" y="2174.117" fill="#FFDA88" width="241.887" height="16.125"/>
		</g>
		<g>
			<path fill="#FFDA88" d="M517.473,2019.344c3.372-6.573,5.31-14.005,5.31-21.9c0-26.569-21.536-48.103-48.101-48.103
				c-26.566,0-48.104,21.534-48.104,48.103c0,7.895,1.94,15.328,5.312,21.9H517.473z"/>
		</g>
		<g>
			<path fill="#FFE2A9" d="M483.127,1950.111c-2.715-0.475-5.494-0.771-8.346-0.771c-26.566,0-48.104,21.534-48.104,48.103
				c0,7.895,1.94,15.328,5.312,21.9h16.692c-3.372-6.573-5.312-14.005-5.312-21.9
				C443.368,1973.727,460.546,1954.071,483.127,1950.111z"/>
		</g>
		<g>
			<rect x="377.553" y="2040.004" fill="#F4F4F4" width="194.468" height="134.113"/>
		</g>
		<g>
			<path fill="#9AE8CE" d="M582.353,2029.672c0,5.708-4.627,10.332-10.332,10.332H377.553c-5.705,0-10.543-4.624-10.543-10.332l0,0
				c0-5.705,4.624-10.329,10.329-10.329h194.682C577.726,2019.344,582.353,2023.968,582.353,2029.672L582.353,2029.672z"/>
		</g>
		<g>
			<path fill="#AEF4DB" d="M381.374,2029.672c0-5.705,4.624-10.329,10.329-10.329H377.34c-5.705,0-10.329,4.624-10.329,10.329
				c0,5.708,4.838,10.332,10.543,10.332h14.364C386.212,2040.004,381.374,2035.38,381.374,2029.672z"/>
		</g>
		<g>
			<path fill="#AA6148" d="M486.998,1998.852c-9.935,9.936-23.687,12.295-30.713,5.274c-7.02-7.027-4.663-20.776,5.275-30.714
				c9.936-9.933,23.684-12.295,30.708-5.271C499.294,1975.165,496.937,1988.916,486.998,1998.852z"/>
		</g>
		<g>
			<path fill="#BC715C" d="M466.662,1978.136c8.569-8.569,19.962-11.486,27.444-7.624c-0.524-0.851-1.119-1.654-1.838-2.371
				c-7.024-7.024-20.772-4.662-30.708,5.271c-9.939,9.939-12.295,23.687-5.275,30.714c0.967,0.965,2.072,1.736,3.266,2.353
				C454.953,1999.035,457.739,1987.059,466.662,1978.136z"/>
		</g>
		<g>
			<g>
				<path fill="#BC715C" d="M459.149,2005.375c-2.287,0-4.175-1.828-4.246-4.143c-0.071-2.356,1.77-4.329,4.119-4.4l0.546-0.018
					c6.945-0.21,10.113-0.301,11.394-11.834c1.72-15.52,13.129-18.514,18.923-17.905c2.337,0.242,4.036,2.338,3.8,4.689
					c-0.236,2.332-2.297,4.033-4.621,3.821c-1.417-0.112-8.496-0.112-9.655,10.341c-2.097,18.909-12.207,19.21-19.588,19.432
					l-0.538,0.015C459.238,2005.375,459.194,2005.375,459.149,2005.375z"/>
			</g>
		</g>
		<g>
			<rect x="394.17" y="2083.846" fill="#FFDA88" width="52.191" height="90.271"/>
		</g>
		<g>
			<rect x="446.361" y="2083.846" fill="#9AE8CE" width="111.588" height="68.031"/>
		</g>
		<g>
			<rect x="458.124" y="2095.908" fill="#E5E5E4" width="88.059" height="43.91"/>
		</g>
		<g>
			<rect x="377.553" y="2040.004" fill="#F9F9F9" width="8.963" height="134.113"/>
		</g>
		<g>
			<path fill="#F4F4F4" d="M437.32,2131.438c0,1.477-1.197,2.675-2.675,2.675l0,0c-1.476,0-2.674-1.199-2.674-2.675v-4.916
				c0-1.476,1.197-2.675,2.674-2.675l0,0c1.478,0,2.675,1.199,2.675,2.675V2131.438z"/>
		</g>
		<g>
			<g>
				<path fill="#F4F4F4" d="M497.323,2118.213c-1.166,0-2.333-0.449-3.22-1.341c-1.764-1.777-1.752-4.65,0.025-6.413l4.298-4.264
					c1.779-1.769,4.651-1.751,6.415,0.024c1.764,1.777,1.753,4.65-0.025,6.413l-4.298,4.264
					C499.634,2117.776,498.478,2118.213,497.323,2118.213z"/>
			</g>
		</g>
		<g>
			<g>
				<path fill="#F4F4F4" d="M502.761,2130.487c-1.109,0-2.222-0.404-3.096-1.222c-1.829-1.71-1.927-4.58-0.215-6.41l12.037-12.874
					c1.708-1.827,4.581-1.928,6.41-0.215c1.829,1.71,1.927,4.58,0.216,6.41l-12.037,12.874
					C505.182,2130.003,503.973,2130.487,502.761,2130.487z"/>
			</g>
		</g>
		<g>
			<path fill="#9AE8CE" d="M377.553,2040.004v17.867c0,5.964,4.835,10.798,10.798,10.798c5.964,0,10.801-4.834,10.801-10.798
				v-17.867H377.553z"/>
		</g>
		<g>
			<path fill="#E5E5E4" d="M399.153,2040.004v17.867c0,5.964,4.835,10.798,10.798,10.798c5.965,0,10.801-4.834,10.801-10.798
				v-17.867H399.153z"/>
		</g>
		<g>
			<path fill="#9AE8CE" d="M420.752,2040.004v17.867c0,5.964,4.837,10.798,10.801,10.798c5.963,0,10.798-4.834,10.798-10.798
				v-17.867H420.752z"/>
		</g>
		<g>
			<path fill="#E5E5E4" d="M442.351,2040.004v17.867c0,5.964,4.835,10.798,10.798,10.798c5.965,0,10.801-4.834,10.801-10.798
				v-17.867H442.351z"/>
		</g>
		<g>
			<path fill="#9AE8CE" d="M463.95,2040.004v17.867c0,5.964,4.837,10.798,10.798,10.798c5.963,0,10.801-4.834,10.801-10.798v-17.867
				H463.95z"/>
		</g>
		<g>
			<path fill="#E5E5E4" d="M485.55,2040.004v17.867c0,5.964,4.837,10.798,10.801,10.798c5.962,0,10.798-4.834,10.798-10.798v-17.867
				H485.55z"/>
		</g>
		<g>
			<path fill="#9AE8CE" d="M507.149,2040.004v17.867c0,5.964,4.835,10.798,10.798,10.798c5.966,0,10.804-4.834,10.804-10.798
				v-17.867H507.149z"/>
		</g>
		<g>
			<path fill="#E5E5E4" d="M528.751,2040.004v17.867c0,5.964,4.835,10.798,10.798,10.798c5.963,0,10.797-4.834,10.797-10.798
				v-17.867H528.751z"/>
		</g>
		<g>
			<path fill="#9AE8CE" d="M550.346,2040.004v17.867c0,5.964,4.838,10.798,10.803,10.798c5.962,0,10.798-4.834,10.798-10.798
				v-17.867H550.346z"/>
		</g>
		<g>
			<rect x="353.738" y="2174.117" fill="#FFE2A9" width="10.605" height="16.125"/>
		</g>
		<g>
			<rect x="394.17" y="2083.846" fill="#FFE2A9" width="7.717" height="90.271"/>
		</g>
		<g>
			<rect x="446.361" y="2083.846" fill="#AEF4DB" width="8.186" height="68.031"/>
		</g>
		<g>
			<rect x="458.124" y="2095.908" fill="#EFEFEF" width="8.014" height="43.91"/>
		</g>
		<g>
			<path fill="#AEF4DB" d="M386.698,2057.871v-17.867h-9.145v17.867c0,5.964,4.835,10.798,10.798,10.798
				c1.64,0,3.18-0.393,4.572-1.048C389.255,2065.896,386.698,2062.194,386.698,2057.871z"/>
		</g>
		<g>
			<path fill="#EFEFEF" d="M408.297,2057.871v-17.867h-9.145v17.867c0,5.964,4.835,10.798,10.798,10.798
				c1.64,0,3.18-0.393,4.572-1.048C410.854,2065.896,408.297,2062.194,408.297,2057.871z"/>
		</g>
		<g>
			<path fill="#EFEFEF" d="M451.496,2057.871v-17.867h-9.145v17.867c0,5.964,4.835,10.798,10.798,10.798
				c1.64,0,3.18-0.393,4.572-1.048C454.053,2065.896,451.496,2062.194,451.496,2057.871z"/>
		</g>
		<g>
			<path fill="#EFEFEF" d="M494.694,2057.871v-17.867h-9.145v17.867c0,5.964,4.835,10.798,10.798,10.798
				c1.64,0,3.18-0.393,4.572-1.048C497.251,2065.896,494.694,2062.194,494.694,2057.871z"/>
		</g>
		<g>
			<path fill="#EFEFEF" d="M537.896,2057.871v-17.867h-9.145v17.867c0,5.964,4.835,10.798,10.798,10.798
				c1.64,0,3.18-0.393,4.572-1.048C540.453,2065.896,537.896,2062.194,537.896,2057.871z"/>
		</g>
		<g>
			<path fill="#AEF4DB" d="M429.409,2057.871v-17.867h-9.145v17.867c0,5.964,4.835,10.798,10.798,10.798
				c1.64,0,3.18-0.393,4.572-1.048C431.966,2065.896,429.409,2062.194,429.409,2057.871z"/>
		</g>
		<g>
			<path fill="#AEF4DB" d="M473.095,2057.871v-17.867h-9.145v17.867c0,5.964,4.835,10.798,10.798,10.798
				c1.64,0,3.18-0.393,4.572-1.048C475.652,2065.896,473.095,2062.194,473.095,2057.871z"/>
		</g>
		<g>
			<path fill="#AEF4DB" d="M516.293,2057.871v-17.867h-9.145v17.867c0,5.964,4.835,10.798,10.798,10.798
				c1.64,0,3.18-0.393,4.572-1.048C518.85,2065.896,516.293,2062.194,516.293,2057.871z"/>
		</g>
		<g>
			<path fill="#AEF4DB" d="M559.409,2057.871v-17.867h-9.144v17.867c0,5.964,4.835,10.798,10.798,10.798
				c1.64,0,3.18-0.393,4.572-1.048C561.966,2065.896,559.409,2062.194,559.409,2057.871z"/>
		</g>
	</g>
	<g>
		<g>
			<path fill="#161616" d="M572.021,2178.652H377.553c-2.505,0-4.535-2.031-4.535-4.535v-134.113c0-2.504,2.03-4.535,4.535-4.535
				h194.468c2.505,0,4.535,2.031,4.535,4.535v45.443c0,2.504-2.03,4.535-4.535,4.535c-2.505,0-4.535-2.031-4.535-4.535v-40.907
				H382.089v125.042h185.397v-63.212c0-2.504,2.03-4.535,4.535-4.535c2.505,0,4.535,2.031,4.535,4.535v67.748
				C576.557,2176.621,574.527,2178.652,572.021,2178.652z"/>
		</g>
		<g>
			<path fill="#161616" d="M595.626,2194.777H388.015c-2.505,0-4.535-2.031-4.535-4.535s2.03-4.535,4.535-4.535H591.09v-7.054
				H358.274v7.054h8.818c2.505,0,4.535,2.031,4.535,4.535s-2.03,4.535-4.535,4.535h-13.354c-2.505,0-4.535-2.031-4.535-4.535
				v-16.125c0-2.504,2.03-4.535,4.535-4.535h241.887c2.505,0,4.535,2.031,4.535,4.535v16.125
				C600.161,2192.746,598.131,2194.777,595.626,2194.777z"/>
		</g>
		<g>
			<path fill="#161616" d="M572.021,2044.539H377.553c-8.313,0-15.078-6.67-15.078-14.867s6.667-14.864,14.864-14.864h194.682
				c8.198,0,14.867,6.667,14.867,14.864S580.22,2044.539,572.021,2044.539z M377.339,2023.879c-3.195,0-5.793,2.598-5.793,5.793
				c0,3.142,2.75,5.796,6.007,5.796h194.468c3.196,0,5.796-2.601,5.796-5.796s-2.6-5.793-5.796-5.793H377.339z"/>
		</g>
		<g>
			<path fill="#161616" d="M466.953,2012.759c-5.321,0-10.216-1.769-13.875-5.427c-8.928-8.935-6.61-25.243,5.275-37.128
				c11.888-11.888,28.194-14.203,37.122-5.271c4.469,4.467,6.241,10.946,4.99,18.236c-1.153,6.72-4.797,13.426-10.261,18.889
				C483.187,2009.077,474.626,2012.759,466.953,2012.759z M481.667,1968.631c-5.31,0-11.747,2.837-16.9,7.987
				c-8.012,8.014-10.428,19.142-5.274,24.301c5.157,5.164,16.286,2.74,24.298-5.274l0,0c4.149-4.149,6.896-9.124,7.733-14.008
				c0.74-4.308-0.134-7.964-2.463-10.29C487.221,1969.508,484.618,1968.631,481.667,1968.631z"/>
		</g>
		<g>
			<path fill="#161616" d="M458.216,2005.991c-2.439,0-4.454-1.94-4.531-4.394c-0.077-2.504,1.89-4.597,4.394-4.674l1.329-0.035
				c7.147-0.174,10.106-0.245,11.412-11.964c0.741-6.658,3.245-11.64,7.439-14.808c5.755-4.343,12.31-3.401,13.045-3.275
				c2.47,0.416,4.135,2.755,3.722,5.223c-0.412,2.457-2.727,4.128-5.179,3.729c-0.155-0.021-3.545-0.434-6.19,1.612
				c-2.086,1.615-3.372,4.482-3.822,8.521c-2.184,19.591-12.602,19.845-20.208,20.028l-1.267,0.033
				C458.312,2005.991,458.263,2005.991,458.216,2005.991z"/>
		</g>
		<g>
			<path fill="#161616" d="M517.473,2023.879h-85.583c-1.701,0-3.258-0.951-4.035-2.466c-3.856-7.518-5.812-15.581-5.812-23.97
				c0-29.025,23.614-52.638,52.64-52.638c29.024,0,52.637,23.613,52.637,52.638c0,8.392-1.955,16.456-5.811,23.97
				C520.731,2022.928,519.174,2023.879,517.473,2023.879z M434.752,2014.808h79.858c2.415-5.507,3.638-11.336,3.638-17.365
				c0-24.023-19.544-43.568-43.566-43.568c-24.023,0-43.569,19.544-43.569,43.568
				C431.113,2003.47,432.335,2009.299,434.752,2014.808z"/>
		</g>
		<g>
			<path fill="#161616" d="M446.361,2178.652H394.17c-2.505,0-4.535-2.031-4.535-4.535v-90.271c0-2.504,2.03-4.535,4.535-4.535
				h52.191c2.505,0,4.535,2.031,4.535,4.535v90.271C450.896,2176.621,448.866,2178.652,446.361,2178.652z M398.705,2169.582h43.12
				v-81.2h-43.12V2169.582z"/>
		</g>
		<g>
			<path fill="#161616" d="M557.949,2156.412H446.361c-2.505,0-4.535-2.031-4.535-4.535v-68.031c0-2.504,2.03-4.535,4.535-4.535
				h111.588c2.505,0,4.535,2.031,4.535,4.535v68.031C562.484,2154.381,560.454,2156.412,557.949,2156.412z M450.896,2147.342
				h102.517v-58.96H450.896V2147.342z"/>
		</g>
		<g>
			<path fill="#161616" d="M546.184,2144.354h-88.059c-2.505,0-4.535-2.031-4.535-4.535v-43.91c0-2.504,2.03-4.535,4.535-4.535
				h88.059c2.505,0,4.535,2.031,4.535,4.535v43.91C550.719,2142.322,548.689,2144.354,546.184,2144.354z M462.66,2135.283h78.988
				v-34.839H462.66V2135.283z"/>
		</g>
		<g>
			<path fill="#161616" d="M437.32,2131.438c0,1.477-1.197,2.675-2.675,2.675l0,0c-1.476,0-2.674-1.199-2.674-2.675v-4.916
				c0-1.476,1.197-2.675,2.674-2.675l0,0c1.478,0,2.675,1.199,2.675,2.675V2131.438z"/>
		</g>
		<g>
			<path fill="#161616" d="M497.323,2118.213c-1.166,0-2.333-0.449-3.22-1.341c-1.764-1.778-1.752-4.651,0.025-6.413l4.298-4.264
				c1.777-1.769,4.649-1.751,6.415,0.024c1.764,1.777,1.752,4.65-0.025,6.413l-4.298,4.264
				C499.634,2117.776,498.478,2118.213,497.323,2118.213z"/>
		</g>
		<g>
			<path fill="#161616" d="M502.761,2130.487c-1.109,0-2.222-0.405-3.096-1.222c-1.829-1.709-1.927-4.58-0.216-6.41l12.037-12.874
				c1.713-1.825,4.583-1.925,6.41-0.216c1.829,1.709,1.927,4.58,0.216,6.41l-12.037,12.874
				C505.182,2130.003,503.973,2130.487,502.761,2130.487z"/>
		</g>
		<g>
			<path fill="#161616" d="M388.352,2073.205c-8.455,0-15.333-6.88-15.333-15.334v-17.867c0-2.504,2.03-4.535,4.535-4.535h21.599
				c2.505,0,4.535,2.031,4.535,4.535v17.867C403.688,2066.325,396.808,2073.205,388.352,2073.205z M382.089,2044.539v13.331
				c0,3.455,2.81,6.263,6.263,6.263c3.455,0,6.266-2.808,6.266-6.263v-13.331H382.089z"/>
		</g>
		<g>
			<path fill="#161616" d="M409.951,2073.205c-8.455,0-15.333-6.88-15.333-15.334v-17.867c0-2.504,2.03-4.535,4.535-4.535h21.599
				c2.505,0,4.535,2.031,4.535,4.535v17.867C425.287,2066.325,418.407,2073.205,409.951,2073.205z M403.688,2044.539v13.331
				c0,3.455,2.809,6.263,6.263,6.263c3.455,0,6.266-2.808,6.266-6.263v-13.331H403.688z"/>
		</g>
		<g>
			<path fill="#161616" d="M431.553,2073.205c-8.457,0-15.336-6.88-15.336-15.334v-17.867c0-2.504,2.03-4.535,4.535-4.535h21.599
				c2.505,0,4.535,2.031,4.535,4.535v17.867C446.886,2066.325,440.008,2073.205,431.553,2073.205z M425.287,2044.539v13.331
				c0,3.455,2.811,6.263,6.266,6.263c3.453,0,6.263-2.808,6.263-6.263v-13.331H425.287z"/>
		</g>
		<g>
			<path fill="#161616" d="M453.149,2073.205c-8.455,0-15.333-6.88-15.333-15.334v-17.867c0-2.504,2.03-4.535,4.535-4.535h21.599
				c2.505,0,4.535,2.031,4.535,4.535v17.867C468.486,2066.325,461.606,2073.205,453.149,2073.205z M446.886,2044.539v13.331
				c0,3.455,2.81,6.263,6.263,6.263c3.455,0,6.266-2.808,6.266-6.263v-13.331H446.886z"/>
		</g>
		<g>
			<path fill="#161616" d="M474.748,2073.205c-8.455,0-15.334-6.88-15.334-15.334v-17.867c0-2.504,2.03-4.535,4.535-4.535h21.599
				c2.505,0,4.535,2.031,4.535,4.535v17.867C490.085,2066.325,483.205,2073.205,474.748,2073.205z M468.486,2044.539v13.331
				c0,3.455,2.81,6.263,6.263,6.263c3.455,0,6.266-2.808,6.266-6.263v-13.331H468.486z"/>
		</g>
		<g>
			<path fill="#161616" d="M496.35,2073.205c-8.457,0-15.336-6.88-15.336-15.334v-17.867c0-2.504,2.03-4.535,4.535-4.535h21.599
				c2.505,0,4.535,2.031,4.535,4.535v17.867C511.684,2066.325,504.806,2073.205,496.35,2073.205z M490.085,2044.539v13.331
				c0,3.455,2.811,6.263,6.266,6.263c3.453,0,6.263-2.808,6.263-6.263v-13.331H490.085z"/>
		</g>
		<g>
			<path fill="#161616" d="M517.947,2073.205c-8.455,0-15.333-6.88-15.333-15.334v-17.867c0-2.504,2.03-4.535,4.535-4.535h21.602
				c2.505,0,4.535,2.031,4.535,4.535v17.867C533.286,2066.325,526.405,2073.205,517.947,2073.205z M511.684,2044.539v13.331
				c0,3.455,2.81,6.263,6.263,6.263c3.456,0,6.269-2.808,6.269-6.263v-13.331H511.684z"/>
		</g>
		<g>
			<path fill="#161616" d="M539.549,2073.205c-8.455,0-15.333-6.88-15.333-15.334v-17.867c0-2.504,2.03-4.535,4.535-4.535h21.595
				c2.505,0,4.535,2.031,4.535,4.535v17.867C554.881,2066.325,548.003,2073.205,539.549,2073.205z M533.286,2044.539v13.331
				c0,3.455,2.81,6.263,6.263,6.263c3.452,0,6.261-2.808,6.261-6.263v-13.331H533.286z"/>
		</g>
		<g>
			<path fill="#161616" d="M561.148,2073.205c-8.458,0-15.338-6.88-15.338-15.334v-17.867c0-2.504,2.03-4.535,4.535-4.535h21.601
				c2.505,0,4.535,2.031,4.535,4.535v17.867C576.482,2066.325,569.603,2073.205,561.148,2073.205z M554.881,2044.539v13.331
				c0,3.455,2.811,6.263,6.267,6.263c3.453,0,6.263-2.808,6.263-6.263v-13.331H554.881z"/>
		</g>
	</g>
</g>
<g>
	<g>
		<g>
			<rect x="29.056" y="254.326" fill="#FFDA88" width="241.887" height="16.125"/>
		</g>
		<g>
			<path fill="#FFDA88" d="M192.791,99.553c3.372-6.573,5.31-14.005,5.31-21.9c0-26.569-21.536-48.103-48.101-48.103
				s-48.105,21.534-48.105,48.103c0,7.896,1.94,15.328,5.312,21.9H192.791z"/>
		</g>
		<g>
			<path fill="#FFE2A9" d="M158.445,30.32c-2.715-0.475-5.494-0.771-8.346-0.771c-26.566,0-48.104,21.534-48.104,48.103
				c0,7.896,1.94,15.328,5.312,21.9h16.692c-3.372-6.573-5.312-14.005-5.312-21.9C118.686,53.936,135.864,34.28,158.445,30.32z"/>
		</g>
		<g>
			<rect x="52.872" y="120.213" fill="#F4F4F4" width="194.468" height="134.113"/>
		</g>
		<g>
			<path fill="#9AE8CE" d="M257.671,109.881c0,5.708-4.627,10.332-10.332,10.332H52.872c-5.705,0-10.543-4.624-10.543-10.332l0,0
				c0-5.705,4.624-10.329,10.329-10.329H247.34C253.044,99.553,257.671,104.177,257.671,109.881L257.671,109.881z"/>
		</g>
		<g>
			<path fill="#AEF4DB" d="M56.692,109.881c0-5.705,4.624-10.329,10.329-10.329H52.658c-5.705,0-10.329,4.624-10.329,10.329
				c0,5.708,4.838,10.332,10.543,10.332h14.364C61.53,120.213,56.692,115.589,56.692,109.881z"/>
		</g>
		<g>
			<path fill="#AA6148" d="M162.316,79.061c-9.935,9.936-23.687,12.295-30.713,5.274c-7.02-7.027-4.663-20.775,5.275-30.714
				c9.936-9.933,23.684-12.295,30.708-5.271C174.612,55.374,172.255,69.125,162.316,79.061z"/>
		</g>
		<g>
			<path fill="#BC715C" d="M141.98,58.345c8.569-8.569,19.962-11.486,27.444-7.624c-0.524-0.851-1.119-1.654-1.838-2.371
				c-7.024-7.024-20.772-4.662-30.708,5.271c-9.939,9.939-12.295,23.687-5.275,30.714c0.967,0.965,2.072,1.736,3.266,2.353
				C130.271,79.244,133.057,67.268,141.98,58.345z"/>
		</g>
		<g>
			<g>
				<path fill="#BC715C" d="M134.467,85.583c-2.287,0-4.175-1.828-4.246-4.143c-0.071-2.356,1.77-4.329,4.119-4.4l0.546-0.018
					c6.945-0.21,10.113-0.301,11.394-11.834c1.72-15.52,13.129-18.514,18.923-17.905c2.337,0.242,4.036,2.338,3.8,4.689
					c-0.236,2.332-2.297,4.033-4.621,3.821c-1.417-0.112-8.496-0.112-9.655,10.341c-2.097,18.909-12.207,19.21-19.588,19.432
					l-0.538,0.015C134.556,85.583,134.512,85.583,134.467,85.583z"/>
			</g>
		</g>
		<g>
			<rect x="69.488" y="164.055" fill="#FFDA88" width="52.191" height="90.271"/>
		</g>
		<g>
			<rect x="121.679" y="164.055" fill="#9AE8CE" width="111.588" height="68.031"/>
		</g>
		<g>
			<rect x="133.442" y="176.117" fill="#E5E5E4" width="88.059" height="43.91"/>
		</g>
		<g>
			<rect x="52.872" y="120.213" fill="#F9F9F9" width="8.963" height="134.113"/>
		</g>
		<g>
			<path fill="#F4F4F4" d="M112.638,211.647c0,1.476-1.197,2.675-2.675,2.675l0,0c-1.476,0-2.674-1.199-2.674-2.675v-4.916
				c0-1.476,1.197-2.675,2.674-2.675l0,0c1.478,0,2.675,1.199,2.675,2.675V211.647z"/>
		</g>
		<g>
			<g>
				<path fill="#F4F4F4" d="M172.642,198.422c-1.166,0-2.333-0.449-3.22-1.341c-1.764-1.777-1.752-4.65,0.025-6.413l4.298-4.264
					c1.779-1.769,4.651-1.751,6.415,0.024c1.764,1.778,1.752,4.651-0.025,6.413l-4.298,4.264
					C174.952,197.985,173.796,198.422,172.642,198.422z"/>
			</g>
		</g>
		<g>
			<g>
				<path fill="#F4F4F4" d="M178.079,210.696c-1.109,0-2.222-0.405-3.096-1.222c-1.829-1.71-1.927-4.58-0.215-6.41l12.037-12.874
					c1.708-1.827,4.581-1.928,6.41-0.215c1.829,1.71,1.927,4.58,0.216,6.41l-12.037,12.874
					C180.5,210.212,179.291,210.696,178.079,210.696z"/>
			</g>
		</g>
		<g>
			<path fill="#9AE8CE" d="M52.872,120.213v17.867c0,5.964,4.835,10.798,10.798,10.798c5.964,0,10.801-4.834,10.801-10.798v-17.867
				H52.872z"/>
		</g>
		<g>
			<path fill="#E5E5E4" d="M74.471,120.213v17.867c0,5.964,4.835,10.798,10.798,10.798c5.965,0,10.801-4.834,10.801-10.798v-17.867
				H74.471z"/>
		</g>
		<g>
			<path fill="#9AE8CE" d="M96.07,120.213v17.867c0,5.964,4.837,10.798,10.801,10.798c5.963,0,10.798-4.834,10.798-10.798v-17.867
				H96.07z"/>
		</g>
		<g>
			<path fill="#E5E5E4" d="M117.669,120.213v17.867c0,5.964,4.835,10.798,10.798,10.798c5.965,0,10.801-4.834,10.801-10.798v-17.867
				H117.669z"/>
		</g>
		<g>
			<path fill="#9AE8CE" d="M139.268,120.213v17.867c0,5.964,4.836,10.798,10.798,10.798c5.963,0,10.801-4.834,10.801-10.798v-17.867
				H139.268z"/>
		</g>
		<g>
			<path fill="#E5E5E4" d="M160.868,120.213v17.867c0,5.964,4.837,10.798,10.801,10.798c5.962,0,10.798-4.834,10.798-10.798v-17.867
				H160.868z"/>
		</g>
		<g>
			<path fill="#9AE8CE" d="M182.467,120.213v17.867c0,5.964,4.835,10.798,10.798,10.798c5.966,0,10.804-4.834,10.804-10.798v-17.867
				H182.467z"/>
		</g>
		<g>
			<path fill="#E5E5E4" d="M204.069,120.213v17.867c0,5.964,4.835,10.798,10.798,10.798c5.963,0,10.797-4.834,10.797-10.798v-17.867
				H204.069z"/>
		</g>
		<g>
			<path fill="#9AE8CE" d="M225.664,120.213v17.867c0,5.964,4.838,10.798,10.803,10.798c5.962,0,10.798-4.834,10.798-10.798v-17.867
				H225.664z"/>
		</g>
		<g>
			<rect x="29.056" y="254.326" fill="#FFE2A9" width="10.605" height="16.125"/>
		</g>
		<g>
			<rect x="69.488" y="164.055" fill="#FFE2A9" width="7.717" height="90.271"/>
		</g>
		<g>
			<rect x="121.679" y="164.055" fill="#AEF4DB" width="8.186" height="68.031"/>
		</g>
		<g>
			<rect x="133.442" y="176.117" fill="#EFEFEF" width="8.014" height="43.91"/>
		</g>
		<g>
			<path fill="#AEF4DB" d="M62.016,138.08v-17.867h-9.145v17.867c0,5.964,4.835,10.798,10.798,10.798c1.64,0,3.18-0.393,4.572-1.048
				C64.573,146.105,62.016,142.403,62.016,138.08z"/>
		</g>
		<g>
			<path fill="#EFEFEF" d="M83.615,138.08v-17.867h-9.145v17.867c0,5.964,4.835,10.798,10.798,10.798c1.64,0,3.18-0.393,4.572-1.048
				C86.172,146.105,83.615,142.403,83.615,138.08z"/>
		</g>
		<g>
			<path fill="#EFEFEF" d="M126.814,138.08v-17.867h-9.145v17.867c0,5.964,4.835,10.798,10.798,10.798
				c1.64,0,3.18-0.393,4.572-1.048C129.371,146.105,126.814,142.403,126.814,138.08z"/>
		</g>
		<g>
			<path fill="#EFEFEF" d="M170.012,138.08v-17.867h-9.145v17.867c0,5.964,4.835,10.798,10.798,10.798
				c1.64,0,3.18-0.393,4.572-1.048C172.569,146.105,170.012,142.403,170.012,138.08z"/>
		</g>
		<g>
			<path fill="#EFEFEF" d="M213.214,138.08v-17.867h-9.145v17.867c0,5.964,4.835,10.798,10.798,10.798
				c1.64,0,3.18-0.393,4.572-1.048C215.771,146.105,213.214,142.403,213.214,138.08z"/>
		</g>
		<g>
			<path fill="#AEF4DB" d="M104.727,138.08v-17.867h-9.145v17.867c0,5.964,4.835,10.798,10.798,10.798
				c1.64,0,3.18-0.393,4.572-1.048C107.284,146.105,104.727,142.403,104.727,138.08z"/>
		</g>
		<g>
			<path fill="#AEF4DB" d="M148.413,138.08v-17.867h-9.145v17.867c0,5.964,4.835,10.798,10.798,10.798
				c1.64,0,3.18-0.393,4.572-1.048C150.97,146.105,148.413,142.403,148.413,138.08z"/>
		</g>
		<g>
			<path fill="#AEF4DB" d="M191.611,138.08v-17.867h-9.145v17.867c0,5.964,4.835,10.798,10.798,10.798
				c1.64,0,3.18-0.393,4.572-1.048C194.168,146.105,191.611,142.403,191.611,138.08z"/>
		</g>
		<g>
			<path fill="#AEF4DB" d="M234.727,138.08v-17.867h-9.145v17.867c0,5.964,4.835,10.798,10.798,10.798
				c1.64,0,3.18-0.393,4.572-1.048C237.284,146.105,234.727,142.403,234.727,138.08z"/>
		</g>
	</g>
	<g>
		<g>
			<path fill="#161616" d="M247.34,258.861H52.872c-2.505,0-4.535-2.031-4.535-4.535V120.213c0-2.504,2.03-4.535,4.535-4.535H247.34
				c2.505,0,4.535,2.032,4.535,4.535v45.442c0,2.504-2.03,4.535-4.535,4.535c-2.505,0-4.535-2.031-4.535-4.535v-40.907H57.407
				V249.79h185.397v-63.212c0-2.504,2.03-4.535,4.535-4.535c2.505,0,4.535,2.031,4.535,4.535v67.747
				C251.875,256.83,249.845,258.861,247.34,258.861z"/>
		</g>
		<g>
			<path fill="#161616" d="M270.944,274.986H63.333c-2.505,0-4.535-2.031-4.535-4.535s2.03-4.535,4.535-4.535h203.075v-7.054H33.592
				v7.054h8.818c2.505,0,4.535,2.031,4.535,4.535s-2.03,4.535-4.535,4.535H29.056c-2.505,0-4.535-2.031-4.535-4.535v-16.125
				c0-2.504,2.03-4.535,4.535-4.535h241.887c2.505,0,4.535,2.031,4.535,4.535v16.125
				C275.479,272.954,273.449,274.986,270.944,274.986z"/>
		</g>
		<g>
			<path fill="#161616" d="M247.34,124.748H52.872c-8.313,0-15.078-6.67-15.078-14.867s6.667-14.864,14.864-14.864H247.34
				c8.198,0,14.867,6.667,14.867,14.864S255.538,124.748,247.34,124.748z M52.657,104.088c-3.195,0-5.793,2.598-5.793,5.793
				c0,3.142,2.75,5.796,6.007,5.796H247.34c3.196,0,5.796-2.601,5.796-5.796c0-3.195-2.6-5.793-5.796-5.793H52.657z"/>
		</g>
		<g>
			<path fill="#161616" d="M142.271,92.968c-5.321,0-10.217-1.769-13.875-5.427c-8.928-8.935-6.61-25.243,5.275-37.128
				c11.888-11.888,28.194-14.203,37.122-5.271c4.469,4.467,6.241,10.946,4.99,18.236c-1.153,6.72-4.797,13.426-10.261,18.889
				C158.505,89.286,149.944,92.968,142.271,92.968z M156.985,48.84c-5.311,0-11.747,2.838-16.9,7.987
				c-8.012,8.014-10.428,19.143-5.274,24.301c5.157,5.164,16.286,2.74,24.298-5.273l0,0c4.149-4.149,6.896-9.124,7.733-14.008
				c0.74-4.308-0.134-7.963-2.463-10.29C162.539,49.716,159.936,48.84,156.985,48.84z"/>
		</g>
		<g>
			<path fill="#161616" d="M133.534,86.2c-2.439,0-4.454-1.94-4.531-4.394c-0.077-2.504,1.89-4.597,4.394-4.674l1.329-0.035
				c7.147-0.174,10.106-0.245,11.412-11.965c0.741-6.658,3.245-11.64,7.439-14.808c5.755-4.343,12.31-3.402,13.045-3.275
				c2.47,0.416,4.135,2.755,3.722,5.223c-0.412,2.457-2.727,4.128-5.179,3.729c-0.155-0.021-3.545-0.434-6.19,1.612
				c-2.086,1.615-3.372,4.482-3.822,8.521c-2.184,19.591-12.602,19.845-20.209,20.028l-1.267,0.033
				C133.63,86.2,133.581,86.2,133.534,86.2z"/>
		</g>
		<g>
			<path fill="#161616" d="M192.791,104.088h-85.583c-1.701,0-3.258-0.951-4.035-2.465c-3.856-7.518-5.812-15.581-5.812-23.97
				c0-29.025,23.614-52.638,52.64-52.638c29.024,0,52.637,23.613,52.637,52.638c0,8.392-1.955,16.456-5.811,23.97
				C196.049,103.137,194.492,104.088,192.791,104.088z M110.07,95.017h79.858c2.415-5.507,3.638-11.336,3.638-17.365
				c0-24.023-19.544-43.567-43.566-43.567c-24.023,0-43.569,19.544-43.569,43.567C106.431,83.679,107.653,89.507,110.07,95.017z"/>
		</g>
		<g>
			<path fill="#161616" d="M121.679,258.861H69.488c-2.505,0-4.535-2.031-4.535-4.535v-90.271c0-2.504,2.03-4.535,4.535-4.535
				h52.191c2.505,0,4.535,2.031,4.535,4.535v90.271C126.214,256.83,124.184,258.861,121.679,258.861z M74.023,249.79h43.12v-81.2
				h-43.12V249.79z"/>
		</g>
		<g>
			<path fill="#161616" d="M233.267,236.621H121.679c-2.505,0-4.535-2.031-4.535-4.535v-68.031c0-2.504,2.03-4.535,4.535-4.535
				h111.588c2.505,0,4.535,2.031,4.535,4.535v68.031C237.802,234.59,235.772,236.621,233.267,236.621z M126.214,227.55h102.517
				v-58.96H126.214V227.55z"/>
		</g>
		<g>
			<path fill="#161616" d="M221.502,224.562h-88.059c-2.505,0-4.535-2.031-4.535-4.535v-43.91c0-2.504,2.03-4.535,4.535-4.535
				h88.059c2.505,0,4.535,2.032,4.535,4.535v43.91C226.037,222.531,224.007,224.562,221.502,224.562z M137.978,215.492h78.988
				v-34.839h-78.988V215.492z"/>
		</g>
		<g>
			<path fill="#161616" d="M112.638,211.647c0,1.476-1.197,2.675-2.675,2.675l0,0c-1.476,0-2.674-1.199-2.674-2.675v-4.916
				c0-1.476,1.197-2.675,2.674-2.675l0,0c1.478,0,2.675,1.199,2.675,2.675V211.647z"/>
		</g>
		<g>
			<path fill="#161616" d="M172.642,198.422c-1.166,0-2.333-0.449-3.22-1.341c-1.764-1.778-1.752-4.651,0.025-6.413l4.298-4.264
				c1.777-1.769,4.649-1.751,6.415,0.024c1.764,1.778,1.752,4.65-0.025,6.413l-4.298,4.264
				C174.952,197.985,173.796,198.422,172.642,198.422z"/>
		</g>
		<g>
			<path fill="#161616" d="M178.079,210.696c-1.109,0-2.222-0.405-3.096-1.223c-1.829-1.71-1.927-4.58-0.216-6.41l12.037-12.874
				c1.713-1.825,4.583-1.925,6.41-0.216c1.829,1.71,1.927,4.58,0.215,6.41l-12.037,12.874
				C180.5,210.212,179.291,210.696,178.079,210.696z"/>
		</g>
		<g>
			<path fill="#161616" d="M63.67,153.413c-8.455,0-15.333-6.88-15.333-15.334v-17.867c0-2.504,2.03-4.535,4.535-4.535h21.599
				c2.505,0,4.535,2.032,4.535,4.535v17.867C79.006,146.533,72.126,153.413,63.67,153.413z M57.407,124.748v13.332
				c0,3.455,2.809,6.263,6.263,6.263c3.455,0,6.266-2.808,6.266-6.263v-13.332H57.407z"/>
		</g>
		<g>
			<path fill="#161616" d="M85.269,153.413c-8.455,0-15.334-6.88-15.334-15.334v-17.867c0-2.504,2.03-4.535,4.535-4.535H96.07
				c2.505,0,4.535,2.032,4.535,4.535v17.867C100.605,146.533,93.725,153.413,85.269,153.413z M79.006,124.748v13.332
				c0,3.455,2.81,6.263,6.263,6.263c3.455,0,6.266-2.808,6.266-6.263v-13.332H79.006z"/>
		</g>
		<g>
			<path fill="#161616" d="M106.871,153.413c-8.457,0-15.336-6.88-15.336-15.334v-17.867c0-2.504,2.03-4.535,4.535-4.535h21.599
				c2.505,0,4.535,2.032,4.535,4.535v17.867C122.204,146.533,115.326,153.413,106.871,153.413z M100.605,124.748v13.332
				c0,3.455,2.811,6.263,6.266,6.263c3.453,0,6.263-2.808,6.263-6.263v-13.332H100.605z"/>
		</g>
		<g>
			<path fill="#161616" d="M128.467,153.413c-8.455,0-15.334-6.88-15.334-15.334v-17.867c0-2.504,2.03-4.535,4.535-4.535h21.599
				c2.505,0,4.535,2.032,4.535,4.535v17.867C143.804,146.533,136.924,153.413,128.467,153.413z M122.204,124.748v13.332
				c0,3.455,2.81,6.263,6.263,6.263c3.455,0,6.266-2.808,6.266-6.263v-13.332H122.204z"/>
		</g>
		<g>
			<path fill="#161616" d="M150.066,153.413c-8.455,0-15.333-6.88-15.333-15.334v-17.867c0-2.504,2.03-4.535,4.535-4.535h21.599
				c2.505,0,4.535,2.032,4.535,4.535v17.867C165.403,146.533,158.523,153.413,150.066,153.413z M143.804,124.748v13.332
				c0,3.455,2.81,6.263,6.263,6.263c3.455,0,6.266-2.808,6.266-6.263v-13.332H143.804z"/>
		</g>
		<g>
			<path fill="#161616" d="M171.669,153.413c-8.457,0-15.336-6.88-15.336-15.334v-17.867c0-2.504,2.03-4.535,4.535-4.535h21.599
				c2.505,0,4.535,2.032,4.535,4.535v17.867C187.002,146.533,180.124,153.413,171.669,153.413z M165.403,124.748v13.332
				c0,3.455,2.811,6.263,6.266,6.263c3.453,0,6.263-2.808,6.263-6.263v-13.332H165.403z"/>
		</g>
		<g>
			<path fill="#161616" d="M193.265,153.413c-8.455,0-15.333-6.88-15.333-15.334v-17.867c0-2.504,2.03-4.535,4.535-4.535h21.602
				c2.505,0,4.535,2.032,4.535,4.535v17.867C208.604,146.533,201.723,153.413,193.265,153.413z M187.002,124.748v13.332
				c0,3.455,2.81,6.263,6.263,6.263c3.456,0,6.269-2.808,6.269-6.263v-13.332H187.002z"/>
		</g>
		<g>
			<path fill="#161616" d="M214.867,153.413c-8.455,0-15.333-6.88-15.333-15.334v-17.867c0-2.504,2.03-4.535,4.535-4.535h21.595
				c2.505,0,4.535,2.032,4.535,4.535v17.867C230.199,146.533,223.321,153.413,214.867,153.413z M208.604,124.748v13.332
				c0,3.455,2.81,6.263,6.263,6.263c3.452,0,6.261-2.808,6.261-6.263v-13.332H208.604z"/>
		</g>
		<g>
			<path fill="#161616" d="M236.466,153.413c-8.458,0-15.338-6.88-15.338-15.334v-17.867c0-2.504,2.03-4.535,4.535-4.535h21.601
				c2.505,0,4.535,2.032,4.535,4.535v17.867C251.8,146.533,244.921,153.413,236.466,153.413z M230.199,124.748v13.332
				c0,3.455,2.811,6.263,6.267,6.263c3.453,0,6.263-2.808,6.263-6.263v-13.332H230.199z"/>
		</g>
	</g>
</g>
</svg>
