<?xml version="1.0" encoding="utf-8"?>
<!-- Generator: Adobe Illustrator 24.3.0, SVG Export Plug-In . SVG Version: 6.00 Build 0)  -->
<svg version="1.1" id="Layer_1" xmlns="http://www.w3.org/2000/svg" xmlns:xlink="http://www.w3.org/1999/xlink" x="0px" y="0px"
	 viewBox="0 0 300 300" enable-background="new 0 0 300 300" xml:space="preserve">
<g>
	<g>
		<g>
			<path fill="#DB7E56" d="M534.723,484.673c-19.37,0-36.618,12.781-47.794,32.69c1.719,1.274,3.356,2.674,4.894,4.212
				c21.611,21.611,17.035,61.979-9.142,94.448c10.727,24.739,30.019,41.247,52.042,41.247c33.699,0,61.015-38.637,61.015-86.297
				C595.738,523.309,568.422,484.673,534.723,484.673z"/>
		</g>
		<g>
			<path fill="#E59477" d="M534.724,657.204c-1.253,0-2.502-0.51-3.398-1.51c-1.659-1.85-1.484-4.676,0.393-6.313
				c25.895-22.58,25.74-47.632-0.486-78.835c-38.763-46.117-0.071-84.265,0.325-84.644c1.792-1.726,4.664-1.69,6.413,0.083
				c1.748,1.764,1.711,4.596-0.08,6.316c-1.44,1.403-32.976,32.919,0.325,72.541c29.228,34.771,29.064,65.471-0.489,91.242
				C536.865,656.834,535.791,657.204,534.724,657.204z"/>
		</g>
		<g>
			<path fill="#AA6148" d="M473.944,625.673c-33.701,33.701-80.336,41.706-104.165,17.877
				c-23.827-23.827-15.822-70.462,17.877-104.163c33.704-33.702,80.339-41.707,104.166-17.88
				C515.651,545.335,507.646,591.971,473.944,625.673z"/>
		</g>
		<g>
			<path fill="#BC715C" d="M400.077,549.591c29.504-29.502,68.917-39.313,94.264-25.315c-0.8-0.951-1.63-1.881-2.519-2.77
				c-23.827-23.827-70.462-15.822-104.166,17.88c-33.7,33.701-41.704,80.336-17.877,104.163c2.969,2.969,6.294,5.443,9.902,7.435
				C359.021,626.457,367.634,582.036,400.077,549.591z"/>
		</g>
		<g>
			<g>
				<path fill="#E59477" d="M498.038,590.87c-3.768,8.595-8.92,17.108-15.403,25.137c10.727,24.748,30.023,41.262,52.052,41.262
					c3.876,0,7.661-0.533,11.336-1.512C522.345,649.459,503.545,623.804,498.038,590.87z"/>
			</g>
			<g>
				<path fill="#E59477" d="M491.823,521.507c4.249,4.249,7.466,9.232,9.726,14.728c7.986-25.618,24.487-44.731,44.466-50.049
					c-3.672-0.976-7.454-1.513-11.328-1.513c-19.349,0-36.581,12.751-47.759,32.622
					C488.647,518.568,490.284,519.968,491.823,521.507z"/>
			</g>
		</g>
		<g>
			<path fill="#BC715C" d="M369.825,643.504c-0.886-0.886-1.408-2.129-1.335-3.471c0.135-2.482,2.257-4.356,4.742-4.186
				c34.277,2.344,51.881-15.48,55.4-56.089c5.2-60.02,59.535-59.635,60.082-59.623c2.488,0.047,4.494,2.102,4.476,4.593
				c-0.01,2.483-2.039,4.46-4.522,4.41c-2.009-0.027-46.594-0.041-51.065,51.523c-3.92,45.255-25.743,66.847-64.864,64.173
				C371.599,644.758,370.581,644.259,369.825,643.504z"/>
		</g>
		<g>
			<g>
				<path fill="#DB7E56" d="M403.821,684.717c-16.968,0-31.962-4.996-41.606-13.898c-1.84-1.699-1.955-4.568-0.255-6.409
					c1.698-1.838,4.569-1.955,6.409-0.256c18.258,16.856,61.638,16.516,94.695-10.931c1.928-1.6,4.786-1.332,6.387,0.594
					c1.599,1.927,1.335,4.786-0.594,6.387C448.369,677.213,424.614,684.717,403.821,684.717z"/>
			</g>
		</g>
		<g>
			<g>
				<path fill="#AA6148" d="M482.117,490.587c-1.035,0-2.076-0.353-2.928-1.075c-1.912-1.618-2.15-4.479-0.53-6.391
					c0.79-0.933,19.702-22.853,50.301-22.853c2.505,0,4.535,2.03,4.535,4.535c0,2.505-2.03,4.535-4.535,4.535
					c-26.44,0-43.213,19.447-43.38,19.643C484.684,490.042,483.404,490.587,482.117,490.587z"/>
			</g>
		</g>
		<g>
			<g>
				<path fill="#AA6148" d="M560.01,476.024c-0.917,0-1.841-0.276-2.643-0.852c-3.886-2.793-10.137-3.717-10.199-3.727
					c-2.482-0.341-4.216-2.629-3.874-5.111c0.341-2.483,2.632-4.225,5.111-3.874c0.864,0.118,8.599,1.278,14.256,5.344
					c2.034,1.463,2.498,4.296,1.036,6.331C562.811,475.369,561.421,476.024,560.01,476.024z"/>
			</g>
		</g>
	</g>
	<g>
		<g>
			<path fill="#161616" d="M534.792,657.257c-1.254,0-2.503-0.509-3.398-1.511c-1.66-1.85-1.484-4.675,0.392-6.313
				c25.896-22.58,25.74-47.632-0.486-78.835c-38.763-46.117-0.071-84.265,0.325-84.644c1.792-1.726,4.664-1.691,6.413,0.083
				c1.748,1.764,1.711,4.596-0.08,6.316c-1.439,1.403-32.976,32.918,0.325,72.541c29.227,34.771,29.064,65.471-0.489,91.242
				C536.933,656.888,535.859,657.257,534.792,657.257z"/>
		</g>
		<g>
			<path fill="#161616" d="M405.767,661.872c-15.636,0-29.232-5.167-39.127-15.062c-15.173-15.173-19.12-39.668-10.56-65.525
				c0.787-2.378,3.357-3.667,5.73-2.88c2.378,0.787,3.669,3.353,2.88,5.73c-7.459,22.534-4.332,43.566,8.364,56.263
				c22.021,22.021,65.874,14.005,97.751-17.877c31.879-31.881,39.9-75.732,17.879-97.753c-22.023-22.02-65.872-13.997-97.753,17.88
				c-7.061,7.062-13.092,14.855-17.926,23.166c-1.259,2.161-4.032,2.9-6.201,1.639c-2.164-1.259-2.9-4.035-1.639-6.201
				c5.226-8.985,11.737-17.402,19.352-25.017c35.418-35.415,85.027-43.436,110.58-17.88c25.559,25.557,17.538,75.163-17.879,110.58
				c-16.956,16.957-37.634,28.241-58.223,31.776C414.455,661.486,410.035,661.872,405.767,661.872z"/>
		</g>
		<g>
			<path fill="#161616" d="M534.791,661.857c-23.251,0-44.263-16.441-56.202-43.978c-0.672-1.547-0.428-3.338,0.629-4.651
				c24.903-30.887,28.972-68.889,9.467-88.394c-1.341-1.339-2.817-2.61-4.389-3.775c-1.834-1.361-2.371-3.872-1.253-5.864
				c12.489-22.246,31.351-35.005,51.749-35.005c31.935,0,59.083,31.568,64.551,75.063c0.313,2.485-1.448,4.752-3.935,5.065
				c-2.483,0.313-4.754-1.447-5.065-3.935c-4.89-38.893-28.253-67.123-55.551-67.123c-16.035,0-31.142,9.821-41.898,27.091
				c0.762,0.672,1.498,1.361,2.204,2.068c22.683,22.683,19.6,63.68-7.084,98.301c10.586,22.639,27.924,36.065,46.777,36.065
				c29.611,0,54.357-33.494,56.337-76.254c0.117-2.501,2.244-4.414,4.741-4.321c2.502,0.117,4.436,2.238,4.321,4.741
				C597.985,624.563,569.258,661.857,534.791,661.857z"/>
		</g>
		<g>
			<path fill="#161616" d="M369.893,643.557c-0.886-0.886-1.408-2.129-1.335-3.471c0.134-2.482,2.257-4.355,4.742-4.185
				c34.277,2.344,51.881-15.48,55.401-56.089c5.2-60.02,59.534-59.635,60.082-59.623c2.487,0.047,4.494,2.102,4.476,4.593
				c-0.011,2.483-2.039,4.46-4.522,4.41c-2.009-0.027-46.594-0.041-51.064,51.523c-3.92,45.255-25.743,66.847-64.864,64.173
				C371.667,644.811,370.648,644.312,369.893,643.557z"/>
		</g>
		<g>
			<path fill="#161616" d="M403.889,684.77c-16.968,0-31.962-4.996-41.605-13.898c-1.839-1.699-1.955-4.568-0.255-6.409
				c1.698-1.837,4.568-1.956,6.409-0.255c18.257,16.853,61.64,16.516,94.695-10.931c1.928-1.6,4.786-1.332,6.387,0.594
				c1.599,1.927,1.335,4.786-0.594,6.387C448.437,677.266,424.682,684.77,403.889,684.77z"/>
		</g>
		<g>
			<path fill="#161616" d="M482.185,490.64c-1.035,0-2.076-0.353-2.928-1.075c-1.912-1.618-2.15-4.479-0.53-6.391
				c0.79-0.933,19.702-22.853,50.301-22.853c2.505,0,4.535,2.03,4.535,4.535s-2.03,4.535-4.535,4.535
				c-26.44,0-43.213,19.447-43.38,19.643C484.752,490.095,483.472,490.64,482.185,490.64z"/>
		</g>
		<g>
			<path fill="#161616" d="M560.078,476.077c-0.917,0-1.841-0.276-2.643-0.852c-3.886-2.793-10.137-3.717-10.199-3.726
				c-2.482-0.341-4.216-2.629-3.874-5.111c0.341-2.483,2.628-4.233,5.111-3.874c0.864,0.118,8.598,1.279,14.256,5.344
				c2.034,1.463,2.498,4.296,1.036,6.331C562.878,475.422,561.489,476.077,560.078,476.077z"/>
		</g>
	</g>
</g>
<g>
	<g>
		<g>
			<path fill="#DB7E56" d="M208.809,62.154c-19.37,0-36.618,12.781-47.794,32.69c1.719,1.274,3.356,2.674,4.894,4.212
				c21.611,21.611,17.035,61.979-9.142,94.448c10.727,24.739,30.019,41.247,52.042,41.247c33.699,0,61.015-38.637,61.015-86.297
				C269.824,100.79,242.508,62.154,208.809,62.154z"/>
		</g>
		<g>
			<path fill="#E59477" d="M208.81,234.684c-1.253,0-2.502-0.509-3.398-1.51c-1.659-1.85-1.484-4.676,0.393-6.313
				c25.895-22.58,25.74-47.632-0.486-78.835c-38.763-46.117-0.071-84.265,0.325-84.644c1.792-1.726,4.664-1.69,6.413,0.083
				c1.748,1.764,1.711,4.596-0.08,6.316c-1.439,1.403-32.976,32.918,0.325,72.541c29.228,34.771,29.064,65.471-0.489,91.242
				C210.951,234.315,209.878,234.684,208.81,234.684z"/>
		</g>
		<g>
			<path fill="#AA6148" d="M148.03,203.154c-33.701,33.701-80.337,41.706-104.165,17.877
				c-23.827-23.827-15.822-70.462,17.877-104.163c33.704-33.702,80.339-41.707,104.166-17.88
				C189.737,122.816,181.733,169.451,148.03,203.154z"/>
		</g>
		<g>
			<path fill="#BC715C" d="M74.163,127.072c29.504-29.502,68.917-39.313,94.264-25.315c-0.8-0.951-1.63-1.881-2.519-2.77
				c-23.827-23.827-70.463-15.822-104.166,17.88c-33.7,33.701-41.704,80.336-17.877,104.163c2.969,2.969,6.294,5.443,9.902,7.435
				C33.107,203.937,41.72,159.516,74.163,127.072z"/>
		</g>
		<g>
			<g>
				<path fill="#E59477" d="M172.124,168.351c-3.768,8.595-8.92,17.108-15.403,25.137c10.727,24.748,30.023,41.262,52.052,41.262
					c3.876,0,7.661-0.533,11.336-1.512C196.431,226.939,177.631,201.284,172.124,168.351z"/>
			</g>
			<g>
				<path fill="#E59477" d="M165.909,98.987c4.249,4.249,7.466,9.232,9.726,14.728c7.986-25.618,24.487-44.731,44.466-50.049
					c-3.672-0.976-7.454-1.513-11.328-1.513c-19.349,0-36.581,12.751-47.759,32.622C162.733,96.049,164.371,97.449,165.909,98.987z"
					/>
			</g>
		</g>
		<g>
			<path fill="#BC715C" d="M43.911,220.985c-0.886-0.886-1.408-2.129-1.335-3.471c0.135-2.482,2.257-4.355,4.742-4.186
				c34.277,2.344,51.881-15.48,55.4-56.089c5.2-60.02,59.535-59.635,60.082-59.623c2.488,0.047,4.494,2.102,4.476,4.593
				c-0.01,2.483-2.039,4.46-4.522,4.41c-2.009-0.027-46.594-0.041-51.065,51.523c-3.92,45.255-25.743,66.847-64.864,64.173
				C45.686,222.238,44.667,221.739,43.911,220.985z"/>
		</g>
		<g>
			<g>
				<path fill="#DB7E56" d="M77.907,262.198c-16.968,0-31.962-4.996-41.606-13.898c-1.84-1.699-1.955-4.568-0.255-6.409
					c1.698-1.838,4.569-1.955,6.409-0.255c18.258,16.856,61.638,16.516,94.695-10.931c1.928-1.6,4.786-1.332,6.387,0.594
					c1.599,1.927,1.335,4.786-0.593,6.387C122.455,254.693,98.7,262.198,77.907,262.198z"/>
			</g>
		</g>
		<g>
			<g>
				<path fill="#AA6148" d="M156.203,68.068c-1.035,0-2.076-0.353-2.928-1.075c-1.912-1.618-2.149-4.479-0.53-6.391
					c0.79-0.933,19.702-22.853,50.301-22.853c2.505,0,4.535,2.03,4.535,4.535c0,2.505-2.03,4.535-4.535,4.535
					c-26.44,0-43.213,19.446-43.38,19.643C158.771,67.523,157.491,68.068,156.203,68.068z"/>
			</g>
		</g>
		<g>
			<g>
				<path fill="#AA6148" d="M234.096,53.505c-0.917,0-1.841-0.276-2.643-0.852c-3.886-2.793-10.137-3.717-10.199-3.727
					c-2.482-0.341-4.216-2.629-3.874-5.111c0.341-2.483,2.632-4.225,5.111-3.874c0.864,0.118,8.598,1.278,14.256,5.344
					c2.034,1.463,2.498,4.296,1.036,6.331C236.897,52.849,235.508,53.505,234.096,53.505z"/>
			</g>
		</g>
	</g>
	<g>
		<g>
			<path fill="#161616" d="M208.878,234.738c-1.254,0-2.503-0.51-3.398-1.511c-1.66-1.85-1.484-4.675,0.393-6.313
				c25.895-22.58,25.74-47.632-0.486-78.835c-38.763-46.117-0.071-84.265,0.325-84.644c1.792-1.726,4.664-1.69,6.413,0.083
				c1.748,1.764,1.711,4.596-0.08,6.316c-1.439,1.403-32.976,32.918,0.325,72.541c29.228,34.771,29.064,65.471-0.489,91.242
				C211.019,234.368,209.946,234.738,208.878,234.738z"/>
		</g>
		<g>
			<path fill="#161616" d="M79.853,239.352c-15.636,0-29.232-5.167-39.127-15.062c-15.173-15.173-19.12-39.668-10.56-65.525
				c0.787-2.378,3.357-3.667,5.73-2.88c2.378,0.787,3.669,3.353,2.88,5.73c-7.459,22.534-4.332,43.566,8.364,56.263
				c22.021,22.021,65.874,14.005,97.752-17.877c31.879-31.881,39.9-75.732,17.879-97.753c-22.023-22.02-65.872-13.997-97.753,17.88
				c-7.062,7.061-13.092,14.855-17.926,23.166c-1.259,2.161-4.032,2.899-6.201,1.639c-2.164-1.259-2.9-4.035-1.639-6.201
				c5.226-8.985,11.737-17.402,19.352-25.017c35.418-35.415,85.027-43.436,110.58-17.88c25.559,25.557,17.538,75.163-17.879,110.58
				c-16.956,16.958-37.634,28.241-58.223,31.776C88.542,238.967,84.121,239.352,79.853,239.352z"/>
		</g>
		<g>
			<path fill="#161616" d="M208.877,239.338c-23.251,0-44.263-16.441-56.202-43.978c-0.672-1.547-0.428-3.338,0.629-4.651
				c24.903-30.887,28.972-68.889,9.467-88.394c-1.341-1.339-2.817-2.61-4.389-3.775c-1.834-1.361-2.371-3.872-1.253-5.864
				c12.489-22.246,31.351-35.005,51.749-35.005c31.935,0,59.083,31.568,64.551,75.063c0.313,2.485-1.448,4.752-3.935,5.065
				c-2.483,0.313-4.754-1.447-5.065-3.934c-4.89-38.893-28.253-67.123-55.551-67.123c-16.035,0-31.142,9.821-41.898,27.091
				c0.762,0.672,1.499,1.361,2.204,2.068c22.683,22.683,19.6,63.68-7.084,98.301c10.585,22.639,27.924,36.065,46.777,36.065
				c29.611,0,54.357-33.494,56.337-76.254c0.117-2.501,2.244-4.414,4.741-4.321c2.502,0.117,4.436,2.238,4.321,4.741
				C272.071,202.043,243.344,239.338,208.877,239.338z"/>
		</g>
		<g>
			<path fill="#161616" d="M43.979,221.038c-0.886-0.886-1.408-2.129-1.335-3.471c0.134-2.482,2.257-4.355,4.742-4.185
				c34.277,2.344,51.881-15.48,55.401-56.089c5.2-60.02,59.534-59.635,60.082-59.623c2.488,0.047,4.494,2.102,4.477,4.593
				c-0.011,2.483-2.039,4.46-4.522,4.41c-2.009-0.027-46.594-0.041-51.064,51.523c-3.92,45.255-25.743,66.847-64.864,64.173
				C45.754,222.292,44.735,221.793,43.979,221.038z"/>
		</g>
		<g>
			<path fill="#161616" d="M77.975,262.251c-16.968,0-31.962-4.996-41.605-13.898c-1.84-1.699-1.955-4.568-0.255-6.409
				c1.698-1.837,4.568-1.956,6.409-0.255c18.257,16.853,61.64,16.516,94.695-10.931c1.928-1.6,4.786-1.332,6.387,0.594
				c1.599,1.927,1.335,4.786-0.594,6.387C122.523,254.746,98.768,262.251,77.975,262.251z"/>
		</g>
		<g>
			<path fill="#161616" d="M156.271,68.121c-1.035,0-2.076-0.353-2.928-1.075c-1.912-1.618-2.15-4.479-0.53-6.391
				c0.79-0.933,19.702-22.853,50.301-22.853c2.505,0,4.535,2.03,4.535,4.535c0,2.505-2.03,4.535-4.535,4.535
				c-26.44,0-43.213,19.447-43.38,19.643C158.839,67.576,157.559,68.121,156.271,68.121z"/>
		</g>
		<g>
			<path fill="#161616" d="M234.164,53.558c-0.917,0-1.841-0.276-2.643-0.852c-3.886-2.793-10.137-3.717-10.199-3.726
				c-2.482-0.341-4.217-2.629-3.874-5.111c0.341-2.483,2.628-4.233,5.111-3.874c0.864,0.118,8.598,1.279,14.256,5.345
				c2.034,1.463,2.498,4.296,1.036,6.331C236.965,52.903,235.576,53.558,234.164,53.558z"/>
		</g>
	</g>
</g>
</svg>
